<?xml version="1.0" encoding="UTF-8" standalone="no"?>
<!DOCTYPE svg PUBLIC "-//W3C//DTD SVG 1.1//EN"
 "http://www.w3.org/Graphics/SVG/1.1/DTD/svg11.dtd">
<!-- Generated by graphviz version 2.40.1 (20161225.0304)
 -->
<!-- Title: G Pages: 1 -->
<svg width="522pt" height="686pt"
 viewBox="0.00 0.00 522.47 686.00" xmlns="http://www.w3.org/2000/svg" xmlns:xlink="http://www.w3.org/1999/xlink">
<g id="graph0" class="graph" transform="scale(1 1) rotate(0) translate(4 682)">
<title>G</title>
<polygon fill="#ffffff" stroke="transparent" points="-4,4 -4,-682 518.468,-682 518.468,4 -4,4"/>
<!-- zm -->
<g id="node1" class="node">
<title>zm</title>
<ellipse fill="#7fff00" stroke="#000000" cx="33.234" cy="-409" rx="33.4697" ry="33.4697"/>
<text text-anchor="middle" x="33.234" y="-402.8" font-family="PT Sans" font-size="24.00" fill="#000000">zm</text>
</g>
<!-- auth -->
<g id="node3" class="node">
<title>auth</title>
<polygon fill="#cce8ff" stroke="#000000" points="174.468,-597 120.468,-597 120.468,-561 174.468,-561 174.468,-597"/>
<text text-anchor="middle" x="147.468" y="-575.2" font-family="PT Sans" font-size="16.00" fill="#000000">auth</text>
</g>
<!-- zm&#45;&gt;auth -->
<g id="edge14" class="edge">
<title>zm&#45;&gt;auth</title>
<path fill="none" stroke="#000000" d="M51.8419,-436.6918C73.2474,-468.5469 108.1598,-520.5025 129.3546,-552.0441"/>
<polygon fill="#000000" stroke="#000000" points="126.7215,-554.401 135.204,-560.749 132.5316,-550.4968 126.7215,-554.401"/>
</g>
<!-- export -->
<g id="node4" class="node">
<title>export</title>
<polygon fill="#cce8ff" stroke="#000000" points="177.968,-351 116.968,-351 116.968,-315 177.968,-315 177.968,-351"/>
<text text-anchor="middle" x="147.468" y="-329.2" font-family="PT Sans" font-size="16.00" fill="#000000">export</text>
</g>
<!-- zm&#45;&gt;export -->
<g id="edge10" class="edge">
<title>zm&#45;&gt;export</title>
<path fill="none" stroke="#000000" d="M61.1788,-390.4083C76.3378,-380.323 95.2443,-367.7445 111.493,-356.9342"/>
<polygon fill="#000000" stroke="#000000" points="113.8189,-359.5907 120.2059,-351.1375 109.9415,-353.7626 113.8189,-359.5907"/>
</g>
<!-- import -->
<g id="node5" class="node">
<title>import</title>
<polygon fill="#cce8ff" stroke="#000000" points="178.468,-484 116.468,-484 116.468,-448 178.468,-448 178.468,-484"/>
<text text-anchor="middle" x="147.468" y="-462.2" font-family="PT Sans" font-size="16.00" fill="#000000">import</text>
</g>
<!-- zm&#45;&gt;import -->
<g id="edge1" class="edge">
<title>zm&#45;&gt;import</title>
<path fill="none" stroke="#000000" d="M63.2477,-423.9761C76.6958,-430.6864 92.7536,-438.6988 107.224,-445.9192"/>
<polygon fill="#000000" stroke="#000000" points="105.9499,-449.1949 116.4605,-450.528 109.0753,-442.9314 105.9499,-449.1949"/>
</g>
<!-- tx -->
<g id="node6" class="node">
<title>tx</title>
<polygon fill="#cce8ff" stroke="#000000" points="192.468,-162 102.468,-162 102.468,-118 192.468,-118 192.468,-162"/>
<text text-anchor="middle" x="147.468" y="-145.2" font-family="PT Sans" font-size="16.00" fill="#000000">tx</text>
<text text-anchor="middle" x="147.468" y="-127.2" font-family="PT Sans" font-size="16.00" fill="#000000">transaction</text>
</g>
<!-- zm&#45;&gt;tx -->
<g id="edge16" class="edge">
<title>zm&#45;&gt;tx</title>
<path fill="none" stroke="#000000" d="M46.2269,-378.4042C68.0919,-326.9162 112.0143,-223.4869 134.1174,-171.4384"/>
<polygon fill="#000000" stroke="#000000" points="137.42,-172.6154 138.1073,-162.0428 130.9769,-169.8792 137.42,-172.6154"/>
</g>
<!-- file -->
<g id="node2" class="node">
<title>file</title>
<polygon fill="#f5deb3" stroke="#000000" points="508.468,-495 460.468,-495 460.468,-459 514.468,-459 514.468,-489 508.468,-495"/>
<polyline fill="none" stroke="#000000" points="508.468,-495 508.468,-489 "/>
<polyline fill="none" stroke="#000000" points="514.468,-489 508.468,-489 "/>
<text text-anchor="middle" x="487.468" y="-473.2" font-family="PT Sans" font-size="16.00" fill="#000000">file</text>
</g>
<!-- exit -->
<g id="node10" class="node">
<title>exit</title>
<polygon fill="#ebf5ff" stroke="#446688" points="287.468,-678 228.468,-678 228.468,-616 287.468,-616 287.468,-678"/>
<text text-anchor="middle" x="257.968" y="-661.2" font-family="PT Sans" font-size="16.00" fill="#446688">exit</text>
<text text-anchor="middle" x="257.968" y="-643.2" font-family="PT Sans" font-size="16.00" fill="#446688">forget</text>
<text text-anchor="middle" x="257.968" y="-625.2" font-family="PT Sans" font-size="16.00" fill="#446688">logout</text>
</g>
<!-- auth&#45;&gt;exit -->
<g id="edge15" class="edge">
<title>auth&#45;&gt;exit</title>
<path fill="none" stroke="#000000" d="M174.4994,-595.6347C187.9389,-603.9052 204.4236,-614.0496 219.183,-623.1323"/>
<polygon fill="#000000" stroke="#000000" points="217.7563,-626.3639 228.1072,-628.6241 221.425,-620.4023 217.7563,-626.3639"/>
</g>
<!-- &#45;&#45;output -->
<g id="node15" class="node">
<title>&#45;&#45;output</title>
<polygon fill="#ffe6eb" stroke="#8f5f69" points="409.968,-360 337.968,-360 337.968,-324 409.968,-324 409.968,-360"/>
<text text-anchor="middle" x="373.968" y="-338.2" font-family="PT Sans" font-size="16.00" fill="#8f5f69">&#45;&#45;output</text>
</g>
<!-- export&#45;&gt;&#45;&#45;output -->
<g id="edge11" class="edge">
<title>export&#45;&gt;&#45;&#45;output</title>
<path fill="none" stroke="#000000" d="M178.0594,-334C206.4243,-334.9492 249.802,-336.4565 287.468,-338 300.5056,-338.5342 314.646,-339.166 327.6427,-339.7678"/>
<polygon fill="#000000" stroke="#000000" points="327.6251,-343.2707 337.7776,-340.2416 327.952,-336.2784 327.6251,-343.2707"/>
</g>
<!-- &#45;&#45;type -->
<g id="node16" class="node">
<title>&#45;&#45;type</title>
<polygon fill="#ffe6eb" stroke="#8f5f69" points="402.968,-414 344.968,-414 344.968,-378 402.968,-378 402.968,-414"/>
<text text-anchor="middle" x="373.968" y="-392.2" font-family="PT Sans" font-size="16.00" fill="#8f5f69">&#45;&#45;type</text>
</g>
<!-- export&#45;&gt;&#45;&#45;type -->
<g id="edge12" class="edge">
<title>export&#45;&gt;&#45;&#45;type</title>
<path fill="none" stroke="#000000" d="M178.0148,-341.4965C218.568,-352.7762 290.2301,-372.7087 334.7419,-385.0894"/>
<polygon fill="#000000" stroke="#000000" points="334.0497,-388.5297 344.6219,-387.8375 335.9256,-381.7857 334.0497,-388.5297"/>
</g>
<!-- &#45;&#45;filter -->
<g id="node18" class="node">
<title>&#45;&#45;filter</title>
<polygon fill="#ffe6eb" stroke="#8f5f69" points="403.968,-306 343.968,-306 343.968,-270 403.968,-270 403.968,-306"/>
<text text-anchor="middle" x="373.968" y="-284.2" font-family="PT Sans" font-size="16.00" fill="#8f5f69">&#45;&#45;filter</text>
</g>
<!-- export&#45;&gt;&#45;&#45;filter -->
<g id="edge13" class="edge">
<title>export&#45;&gt;&#45;&#45;filter</title>
<path fill="none" stroke="#000000" d="M178.0148,-326.9311C218.344,-318.9187 289.4392,-304.7938 334.0017,-295.9403"/>
<polygon fill="#000000" stroke="#000000" points="334.779,-299.3544 343.9052,-293.9727 333.4148,-292.4886 334.779,-299.3544"/>
</g>
<!-- &#45;&#45;add&#45;dupes -->
<g id="node11" class="node">
<title>&#45;&#45;add&#45;dupes</title>
<polygon fill="#ffe6eb" stroke="#8f5f69" points="422.968,-576 324.968,-576 324.968,-540 422.968,-540 422.968,-576"/>
<text text-anchor="middle" x="373.968" y="-554.2" font-family="PT Sans" font-size="16.00" fill="#8f5f69">&#45;&#45;add&#45;dupes</text>
</g>
<!-- import&#45;&gt;&#45;&#45;add&#45;dupes -->
<g id="edge2" class="edge">
<title>import&#45;&gt;&#45;&#45;add&#45;dupes</title>
<path fill="none" stroke="#000000" d="M178.487,-478.5993C214.8328,-493.3623 275.6954,-518.0835 319.8679,-536.0256"/>
<polygon fill="#000000" stroke="#000000" points="318.7235,-539.3384 329.3056,-539.8589 321.3578,-532.8529 318.7235,-539.3384"/>
</g>
<!-- &#45;&#45;ask -->
<g id="node12" class="node">
<title>&#45;&#45;ask</title>
<polygon fill="#ffe6eb" stroke="#8f5f69" points="400.968,-522 346.968,-522 346.968,-486 400.968,-486 400.968,-522"/>
<text text-anchor="middle" x="373.968" y="-500.2" font-family="PT Sans" font-size="16.00" fill="#8f5f69">&#45;&#45;ask</text>
</g>
<!-- import&#45;&gt;&#45;&#45;ask -->
<g id="edge3" class="edge">
<title>import&#45;&gt;&#45;&#45;ask</title>
<path fill="none" stroke="#000000" d="M178.487,-471.2041C219.7638,-478.1291 292.661,-490.3591 336.822,-497.768"/>
<polygon fill="#000000" stroke="#000000" points="336.4165,-501.2488 346.8578,-499.4517 337.5747,-494.3453 336.4165,-501.2488"/>
</g>
<!-- &#45;&#45;skip&#45;dupes -->
<g id="node13" class="node">
<title>&#45;&#45;skip&#45;dupes</title>
<polygon fill="#ffe6eb" stroke="#8f5f69" points="424.468,-468 323.468,-468 323.468,-432 424.468,-432 424.468,-468"/>
<text text-anchor="middle" x="373.968" y="-446.2" font-family="PT Sans" font-size="16.00" fill="#8f5f69">&#45;&#45;skip&#45;dupes</text>
</g>
<!-- import&#45;&gt;&#45;&#45;skip&#45;dupes -->
<g id="edge4" class="edge">
<title>import&#45;&gt;&#45;&#45;skip&#45;dupes</title>
<path fill="none" stroke="#000000" d="M178.487,-463.8088C213.0339,-461.3684 269.7308,-457.3633 313.1914,-454.2933"/>
<polygon fill="#000000" stroke="#000000" points="313.642,-457.7703 323.3705,-453.5742 313.1487,-450.7877 313.642,-457.7703"/>
</g>
<!-- &#45;&#45;input -->
<g id="node14" class="node">
<title>&#45;&#45;input</title>
<polygon fill="#ffe6eb" stroke="#8f5f69" points="405.468,-630 342.468,-630 342.468,-594 405.468,-594 405.468,-630"/>
<text text-anchor="middle" x="373.968" y="-608.2" font-family="PT Sans" font-size="16.00" fill="#8f5f69">&#45;&#45;input</text>
</g>
<!-- import&#45;&gt;&#45;&#45;input -->
<g id="edge5" class="edge">
<title>import&#45;&gt;&#45;&#45;input</title>
<path fill="none" stroke="#000000" d="M172.055,-484.0969C187.995,-495.7068 209.2889,-510.9881 228.468,-524 269.9908,-552.1708 280.1977,-559.5951 323.468,-585 326.6563,-586.8719 329.9838,-588.7696 333.343,-590.6463"/>
<polygon fill="#000000" stroke="#000000" points="331.7851,-593.7838 342.2347,-595.5323 335.1563,-587.649 331.7851,-593.7838"/>
</g>
<!-- import&#45;&gt;&#45;&#45;type -->
<g id="edge6" class="edge">
<title>import&#45;&gt;&#45;&#45;type</title>
<path fill="none" stroke="#000000" d="M178.487,-456.4136C219.2622,-443.812 290.8937,-421.6742 335.1992,-407.9815"/>
<polygon fill="#000000" stroke="#000000" points="336.2369,-411.3242 344.7576,-405.0275 334.17,-404.6363 336.2369,-411.3242"/>
</g>
<!-- import&#45;&gt;&#45;&#45;filter -->
<g id="edge7" class="edge">
<title>import&#45;&gt;&#45;&#45;filter</title>
<path fill="none" stroke="#000000" d="M165.8865,-447.789C196.7605,-417.8365 261.6653,-357.2851 323.468,-315 327.168,-312.4685 331.1314,-309.9911 335.1507,-307.6272"/>
<polygon fill="#000000" stroke="#000000" points="336.9693,-310.6198 343.958,-302.6569 333.5289,-304.5236 336.9693,-310.6198"/>
</g>
<!-- delete -->
<g id="node7" class="node">
<title>delete</title>
<polygon fill="#ebf5ff" stroke="#446688" points="287.468,-43 228.468,-43 228.468,-7 287.468,-7 287.468,-43"/>
<text text-anchor="middle" x="257.968" y="-21.2" font-family="PT Sans" font-size="16.00" fill="#446688">delete</text>
</g>
<!-- tx&#45;&gt;delete -->
<g id="edge17" class="edge">
<title>tx&#45;&gt;delete</title>
<path fill="none" stroke="#000000" d="M168.7735,-117.8268C187.2362,-98.6123 213.9555,-70.8049 233.3328,-50.6384"/>
<polygon fill="#000000" stroke="#000000" points="235.9625,-52.9532 240.3674,-43.3174 230.915,-48.1032 235.9625,-52.9532"/>
</g>
<!-- get -->
<g id="node8" class="node">
<title>get</title>
<polygon fill="#ebf5ff" stroke="#446688" points="284.968,-124 230.968,-124 230.968,-88 284.968,-88 284.968,-124"/>
<text text-anchor="middle" x="257.968" y="-102.2" font-family="PT Sans" font-size="16.00" fill="#446688">get</text>
</g>
<!-- tx&#45;&gt;get -->
<g id="edge18" class="edge">
<title>tx&#45;&gt;get</title>
<path fill="none" stroke="#000000" d="M192.7314,-126.0728C202.0852,-123.1947 211.834,-120.1951 220.8568,-117.4189"/>
<polygon fill="#000000" stroke="#000000" points="222.1471,-120.6838 230.6756,-114.3977 220.0885,-113.9934 222.1471,-120.6838"/>
</g>
<!-- list -->
<g id="node9" class="node">
<title>list</title>
<polygon fill="#ebf5ff" stroke="#446688" points="284.968,-191 230.968,-191 230.968,-155 284.968,-155 284.968,-191"/>
<text text-anchor="middle" x="257.968" y="-169.2" font-family="PT Sans" font-size="16.00" fill="#446688">list</text>
</g>
<!-- tx&#45;&gt;list -->
<g id="edge21" class="edge">
<title>tx&#45;&gt;list</title>
<path fill="none" stroke="#000000" d="M192.7314,-153.5176C202.0852,-156.311 211.834,-159.2224 220.8568,-161.917"/>
<polygon fill="#000000" stroke="#000000" points="220.0922,-165.3413 230.6756,-164.8493 222.0953,-158.6341 220.0922,-165.3413"/>
</g>
<!-- id -->
<g id="node22" class="node">
<title>id</title>
<path fill="#ffff00" stroke="#000000" d="M388.968,-36C388.968,-36 358.968,-36 358.968,-36 352.968,-36 346.968,-30 346.968,-24 346.968,-24 346.968,-12 346.968,-12 346.968,-6 352.968,0 358.968,0 358.968,0 388.968,0 388.968,0 394.968,0 400.968,-6 400.968,-12 400.968,-12 400.968,-24 400.968,-24 400.968,-30 394.968,-36 388.968,-36"/>
<text text-anchor="middle" x="373.968" y="-14.2" font-family="PT Sans" font-size="16.00" fill="#000000">id</text>
</g>
<!-- delete&#45;&gt;id -->
<g id="edge19" class="edge">
<title>delete&#45;&gt;id</title>
<path fill="none" stroke="#000000" d="M287.5399,-23.2155C302.5171,-22.3117 320.8543,-21.2051 336.7787,-20.2442"/>
<polygon fill="#000000" stroke="#000000" points="337.0643,-23.7334 346.8353,-19.6373 336.6426,-16.7461 337.0643,-23.7334"/>
</g>
<!-- get&#45;&gt;id -->
<g id="edge20" class="edge">
<title>get&#45;&gt;id</title>
<path fill="none" stroke="#000000" d="M274.9536,-87.842C287.5815,-74.9492 305.641,-57.738 323.468,-45 327.9676,-41.7849 332.896,-38.6923 337.8545,-35.8207"/>
<polygon fill="#000000" stroke="#000000" points="339.6708,-38.8158 346.7261,-30.9118 336.2817,-32.6909 339.6708,-38.8158"/>
</g>
<!-- &#45;&#45;format -->
<g id="node17" class="node">
<title>&#45;&#45;format</title>
<polygon fill="#ffe6eb" stroke="#8f5f69" points="410.468,-144 337.468,-144 337.468,-108 410.468,-108 410.468,-144"/>
<text text-anchor="middle" x="373.968" y="-122.2" font-family="PT Sans" font-size="16.00" fill="#8f5f69">&#45;&#45;format</text>
</g>
<!-- list&#45;&gt;&#45;&#45;format -->
<g id="edge22" class="edge">
<title>list&#45;&gt;&#45;&#45;format</title>
<path fill="none" stroke="#000000" d="M285.1649,-161.9806C297.9092,-156.817 313.4486,-150.5208 327.9445,-144.6475"/>
<polygon fill="#000000" stroke="#000000" points="329.326,-147.8642 337.2798,-140.865 326.6974,-141.3764 329.326,-147.8642"/>
</g>
<!-- list&#45;&gt;&#45;&#45;filter -->
<g id="edge23" class="edge">
<title>list&#45;&gt;&#45;&#45;filter</title>
<path fill="none" stroke="#000000" d="M268.096,-191.0298C279.576,-210.235 299.8008,-240.6177 323.468,-261 326.9522,-264.0005 330.8257,-266.7982 334.8341,-269.3683"/>
<polygon fill="#000000" stroke="#000000" points="333.3362,-272.5484 343.7262,-274.6216 336.8968,-266.5216 333.3362,-272.5484"/>
</g>
<!-- &#45;&#45;limit -->
<g id="node19" class="node">
<title>&#45;&#45;limit</title>
<polygon fill="#ffe6eb" stroke="#8f5f69" points="403.968,-90 343.968,-90 343.968,-54 403.968,-54 403.968,-90"/>
<text text-anchor="middle" x="373.968" y="-68.2" font-family="PT Sans" font-size="16.00" fill="#8f5f69">&#45;&#45;limit</text>
</g>
<!-- list&#45;&gt;&#45;&#45;limit -->
<g id="edge24" class="edge">
<title>list&#45;&gt;&#45;&#45;limit</title>
<path fill="none" stroke="#000000" d="M271.0027,-154.919C283.2438,-138.8309 302.7354,-115.379 323.468,-99 327.0309,-96.1853 330.9299,-93.5155 334.9316,-91.0285"/>
<polygon fill="#000000" stroke="#000000" points="336.8808,-93.9439 343.7656,-85.8909 333.3616,-87.8928 336.8808,-93.9439"/>
</g>
<!-- &#45;&#45;skip -->
<g id="node20" class="node">
<title>&#45;&#45;skip</title>
<polygon fill="#ffe6eb" stroke="#8f5f69" points="401.968,-252 345.968,-252 345.968,-216 401.968,-216 401.968,-252"/>
<text text-anchor="middle" x="373.968" y="-230.2" font-family="PT Sans" font-size="16.00" fill="#8f5f69">&#45;&#45;skip</text>
</g>
<!-- list&#45;&gt;&#45;&#45;skip -->
<g id="edge25" class="edge">
<title>list&#45;&gt;&#45;&#45;skip</title>
<path fill="none" stroke="#000000" d="M285.1649,-187.3018C300.5334,-195.3835 319.9667,-205.6027 336.7329,-214.4194"/>
<polygon fill="#000000" stroke="#000000" points="335.2504,-217.5943 345.7303,-219.1509 338.5085,-211.3987 335.2504,-217.5943"/>
</g>
<!-- &#45;&#45;order -->
<g id="node21" class="node">
<title>&#45;&#45;order</title>
<polygon fill="#ffe6eb" stroke="#8f5f69" points="405.968,-198 341.968,-198 341.968,-162 405.968,-162 405.968,-198"/>
<text text-anchor="middle" x="373.968" y="-176.2" font-family="PT Sans" font-size="16.00" fill="#8f5f69">&#45;&#45;order</text>
</g>
<!-- list&#45;&gt;&#45;&#45;order -->
<g id="edge26" class="edge">
<title>list&#45;&gt;&#45;&#45;order</title>
<path fill="none" stroke="#000000" d="M285.1649,-174.6412C298.876,-175.4686 315.8224,-176.4912 331.2239,-177.4206"/>
<polygon fill="#000000" stroke="#000000" points="331.3882,-180.9368 341.5809,-178.0456 331.8099,-173.9495 331.3882,-180.9368"/>
</g>
<!-- &#45;&#45;input&#45;&gt;file -->
<g id="edge8" class="edge">
<title>&#45;&#45;input&#45;&gt;file</title>
<path fill="none" stroke="#000000" d="M405.6886,-598.5018C412.366,-594.7522 419.0271,-590.2427 424.468,-585 448.2664,-562.0683 466.0408,-528.2132 476.539,-504.5385"/>
<polygon fill="#000000" stroke="#000000" points="479.8714,-505.6476 480.5891,-495.0771 473.4362,-502.8929 479.8714,-505.6476"/>
</g>
<!-- &#45;&#45;output&#45;&gt;file -->
<g id="edge9" class="edge">
<title>&#45;&#45;output&#45;&gt;file</title>
<path fill="none" stroke="#000000" d="M410.1536,-358.1281C415.2849,-361.3019 420.2442,-364.93 424.468,-369 448.2664,-391.9317 466.0408,-425.7868 476.539,-449.4615"/>
<polygon fill="#000000" stroke="#000000" points="473.4362,-451.1071 480.5891,-458.9229 479.8714,-448.3524 473.4362,-451.1071"/>
</g>
</g>
</svg>
